<svg width="1386" height="130" viewBox="0 0 1386 130" fill="none" xmlns="http://www.w3.org/2000/svg">
<path d="M127.952 127H99.264L88.88 97.96H38.544L28.336 127H0.528L46.992 3.79999H80.08L127.952 127ZM45.76 77.192H81.488L74.096 56.424C70.4 46.04 67.056 35.832 64.064 25.624H62.832C60.192 34.776 56.848 45.16 52.976 56.6L45.76 77.192ZM163.632 3.79999V105.88H224.176V127H136.528V3.79999H163.632ZM305.551 60.12C316.991 60.648 325.791 63.816 331.775 69.448C337.759 75.256 340.927 82.472 340.927 91.272C340.927 102.888 337.055 111.688 329.487 117.848C321.743 124.008 310.831 127 296.751 127H236.559V3.79999H302.031C313.295 3.79999 322.271 6.26399 328.607 11.192C334.943 16.12 338.111 22.984 338.111 31.608C338.111 39.88 335.119 46.392 329.487 51.144C323.679 56.072 315.759 58.536 305.551 58.888V60.12ZM263.663 24.92V55.544H290.767C297.103 55.544 301.855 54.136 305.375 51.32C308.719 48.504 310.479 44.632 310.479 39.352C310.479 34.776 308.895 31.256 306.079 28.792C303.087 26.328 298.863 24.92 293.407 24.92H263.663ZM294.991 105.88C300.623 105.88 305.023 104.472 308.367 101.656C311.535 98.84 313.295 94.968 313.295 90.04C313.295 85.464 311.359 81.592 307.839 78.776C304.319 75.96 299.567 74.552 293.583 74.552H263.663V105.88H294.991ZM352.018 3.79999H378.946V79.48C378.946 98.664 387.922 108.168 406.226 108.168C424.354 108.168 433.506 98.664 433.506 79.304V3.79999H460.434V80.888C460.434 97.08 455.506 109.4 445.65 117.496C435.794 125.768 422.77 129.816 406.226 129.816C390.034 129.816 376.834 125.768 366.978 117.32C356.946 108.872 352.018 96.552 352.018 80.184V3.79999ZM478.387 127V3.79999H517.459L535.411 54.312C540.515 69.448 544.387 81.064 547.027 89.512H548.259C550.723 81.064 554.595 69.448 559.875 54.312L577.827 3.79999H616.899V127H590.499V72.44C590.499 55.192 590.499 41.64 590.675 31.784L589.619 31.608L576.595 72.088L558.467 127H536.819L518.691 72.088L505.667 31.608L504.611 31.784C504.611 41.64 504.787 55.192 504.787 72.44V127H478.387ZM788.725 79.128C788.021 89.336 785.205 98.312 780.277 105.88C775.349 113.624 768.661 119.432 760.213 123.656C751.765 127.88 741.733 129.816 730.469 129.816C717.797 129.816 706.885 127.352 697.733 122.072C688.581 116.968 681.365 109.576 676.437 99.72C671.509 90.04 669.045 78.6 669.045 65.224C669.045 52.024 671.509 40.584 676.437 30.904C681.365 21.224 688.581 13.832 697.733 8.72799C706.885 3.62399 717.797 0.983996 730.469 0.983996C741.733 0.983996 751.765 3.09599 760.213 7.32C768.661 11.544 775.525 17.352 780.453 25.096C785.381 32.84 788.197 41.64 788.901 51.848H761.269C760.213 42.872 757.045 35.656 751.589 30.376C745.957 25.096 738.917 22.28 730.117 22.28C719.909 22.28 711.813 26.152 705.829 33.72C699.845 41.288 697.029 51.848 697.029 65.224C697.029 78.776 700.021 89.336 706.005 97.08C711.989 104.824 720.085 108.52 730.469 108.52C739.093 108.52 746.133 105.88 751.589 100.6C757.045 95.32 760.213 88.104 761.269 79.128H788.725ZM827.347 121.896C817.843 116.792 810.627 109.4 805.523 99.544C800.243 89.864 797.779 78.424 797.779 65.224C797.779 52.2 800.243 40.76 805.523 31.08C810.627 21.4 817.843 14.008 827.347 8.72799C836.675 3.62399 847.763 0.983996 860.435 0.983996C873.107 0.983996 884.019 3.62399 893.523 8.72799C903.027 14.008 910.243 21.4 915.523 31.08C920.627 40.76 923.267 52.2 923.267 65.224C923.267 78.424 920.627 89.864 915.523 99.544C910.243 109.4 903.027 116.792 893.523 121.896C884.019 127.176 873.107 129.64 860.435 129.64C847.763 129.64 836.851 127.176 827.347 121.896ZM885.955 97.432C892.115 90.04 895.283 79.304 895.283 65.224C895.283 51.496 892.115 40.76 885.955 33.368C879.619 25.976 871.171 22.28 860.435 22.28C849.523 22.28 841.075 25.976 834.915 33.368C828.755 40.76 825.763 51.496 825.763 65.224C825.763 79.304 828.755 90.04 834.915 97.432C841.075 104.824 849.523 108.344 860.435 108.344C871.171 108.344 879.619 104.824 885.955 97.432ZM964.741 3.79999V105.88H1025.29V127H937.637V3.79999H964.741ZM1053.71 121.896C1044.2 116.792 1036.99 109.4 1031.88 99.544C1026.6 89.864 1024.14 78.424 1024.14 65.224C1024.14 52.2 1026.6 40.76 1031.88 31.08C1036.99 21.4 1044.2 14.008 1053.71 8.72799C1063.03 3.62399 1074.12 0.983996 1086.79 0.983996C1099.47 0.983996 1110.38 3.62399 1119.88 8.72799C1129.39 14.008 1136.6 21.4 1141.88 31.08C1146.99 40.76 1149.63 52.2 1149.63 65.224C1149.63 78.424 1146.99 89.864 1141.88 99.544C1136.6 109.4 1129.39 116.792 1119.88 121.896C1110.38 127.176 1099.47 129.64 1086.79 129.64C1074.12 129.64 1063.21 127.176 1053.71 121.896ZM1112.31 97.432C1118.47 90.04 1121.64 79.304 1121.64 65.224C1121.64 51.496 1118.47 40.76 1112.31 33.368C1105.98 25.976 1097.53 22.28 1086.79 22.28C1075.88 22.28 1067.43 25.976 1061.27 33.368C1055.11 40.76 1052.12 51.496 1052.12 65.224C1052.12 79.304 1055.11 90.04 1061.27 97.432C1067.43 104.824 1075.88 108.344 1086.79 108.344C1097.53 108.344 1105.98 104.824 1112.31 97.432ZM1269.42 127H1242.32L1237.92 98.84C1237.21 94.44 1236.16 91.096 1234.75 88.808C1233.34 86.52 1231.4 84.936 1228.59 84.056C1225.77 83.352 1221.72 82.824 1216.44 82.824H1191.1V127H1164V3.79999H1226.65C1239.15 3.79999 1248.83 6.616 1255.87 12.072C1262.91 17.528 1266.43 25.096 1266.43 34.6C1266.43 43.4 1263.44 50.616 1257.63 56.248C1251.64 61.88 1244.08 65.048 1234.57 65.576V66.808C1243.72 66.984 1250.59 68.92 1254.81 72.44C1259.04 76.136 1261.85 82.296 1263.44 90.92L1269.42 127ZM1218.91 63.64C1225.24 63.64 1230.35 61.88 1234.22 58.184C1238.09 54.664 1240.03 49.736 1240.03 43.752C1240.03 38.12 1238.09 33.72 1234.22 30.2C1230.35 26.68 1225.24 24.92 1218.91 24.92H1191.1V63.64H1218.91ZM1290.69 118.376C1280.83 110.984 1276.08 100.424 1276.43 87.048H1302.83C1303.18 93.736 1306 99.016 1311.1 102.536C1316.21 106.056 1323.25 107.992 1332.05 107.992C1340.32 107.992 1346.83 106.76 1351.41 103.944C1355.98 101.128 1358.45 97.256 1358.45 92.328C1358.45 88.984 1357.21 86.168 1354.75 83.88C1352.29 81.592 1348.94 80.008 1344.37 78.952L1314.45 72.44C1302.83 69.976 1294.21 65.576 1288.22 59.592C1282.24 53.608 1279.25 46.216 1279.25 37.24C1279.25 26.152 1283.82 17.352 1293.15 10.84C1302.3 4.50399 1315.15 1.15999 1331.34 1.15999C1347.89 1.15999 1360.91 5.032 1370.41 12.6C1379.74 20.168 1384.49 30.728 1384.85 44.28H1358.97C1358.62 37.592 1356.16 32.312 1351.23 28.616C1346.3 24.92 1339.79 22.984 1331.34 22.984C1323.42 22.984 1317.26 24.392 1313.04 26.856C1308.81 29.32 1306.7 33.016 1306.7 37.592C1306.7 41.112 1308.11 44.28 1311.1 46.744C1313.92 49.208 1318.32 51.144 1324.13 52.376L1356.86 59.944C1365.84 62.056 1372.88 65.752 1377.98 71.032C1383.09 76.488 1385.73 83.704 1385.73 92.68C1385.73 104.296 1380.97 113.272 1371.47 119.784C1361.97 126.472 1348.94 129.64 1332.05 129.64C1314.27 129.64 1300.54 125.944 1290.69 118.376Z" fill="#101010"/>
</svg>
